<?xml version="1.0" standalone="no"?>
<!DOCTYPE svg PUBLIC "-//W3C//DTD SVG 20010904//EN"
 "http://www.w3.org/TR/2001/REC-SVG-20010904/DTD/svg10.dtd">
<svg version="1.0" xmlns="http://www.w3.org/2000/svg"
 width="512.000000pt" height="512.000000pt" viewBox="0 0 512.000000 512.000000"
 preserveAspectRatio="xMidYMid meet">
<metadata>
Created by potrace 1.11, written by Peter Selinger 2001-2013
</metadata>
<g transform="translate(0.000000,512.000000) scale(0.100000,-0.100000)"
fill="#000000" stroke="none">
<path d="M210 3800 l0 -380 65 0 65 0 2 318 3 317 318 3 317 2 0 60 0 60 -385
0 -385 0 0 -380z"/>
<path d="M4140 4120 l0 -60 318 -2 317 -3 3 -317 2 -318 65 0 65 0 0 380 0
380 -385 0 -385 0 0 -60z"/>
<path d="M690 3110 l0 -680 25 0 25 0 0 680 0 680 -25 0 -25 0 0 -680z"/>
<path d="M870 3110 l0 -680 130 0 130 0 0 680 0 680 -130 0 -130 0 0 -680z"/>
<path d="M1260 3110 l0 -680 85 0 85 0 0 680 0 680 -85 0 -85 0 0 -680z"/>
<path d="M1560 3110 l0 -680 55 0 55 0 0 680 0 680 -55 0 -55 0 0 -680z"/>
<path d="M1800 3110 l0 -680 50 0 50 0 0 680 0 680 -50 0 -50 0 0 -680z"/>
<path d="M2030 3110 l0 -680 25 0 25 0 0 680 0 680 -25 0 -25 0 0 -680z"/>
<path d="M2210 3110 l0 -680 85 0 85 0 0 680 0 680 -85 0 -85 0 0 -680z"/>
<path d="M2490 3110 l0 -680 55 0 55 0 0 680 -1 680 -54 0 -55 0 0 -680z"/>
<path d="M2710 3110 l0 -680 85 0 85 0 0 680 0 680 -85 0 -85 0 0 -680z"/>
<path d="M3010 3110 l0 -680 25 0 25 0 0 680 0 680 -25 0 -25 0 0 -680z"/>
<path d="M3190 3110 l0 -680 50 0 50 0 0 680 0 680 -50 0 -50 0 0 -680z"/>
<path d="M3420 3110 l0 -680 50 0 50 0 0 680 0 680 -50 0 -50 0 0 -680z"/>
<path d="M3650 3110 l0 -680 85 0 85 0 0 680 0 680 -85 0 -85 0 0 -680z"/>
<path d="M3950 3110 l0 -680 130 0 130 0 0 680 0 680 -130 0 -130 0 0 -680z"/>
<path d="M4340 3110 l0 -680 25 0 25 0 0 680 0 680 -25 0 -25 0 0 -680z"/>
<path d="M464 2285 c-15 -23 -15 -27 0 -50 l16 -25 2063 0 c1591 0 2066 3
2075 12 19 19 15 66 -7 78 -13 7 -677 10 -2075 10 l-2056 0 -16 -25z"/>
<path d="M690 1710 l0 -380 25 0 25 0 0 380 0 380 -25 0 -25 0 0 -380z"/>
<path d="M870 1710 l0 -380 130 0 130 0 0 380 0 380 -130 0 -130 0 0 -380z"/>
<path d="M1260 1710 l0 -380 85 0 85 0 0 380 0 380 -85 0 -85 0 0 -380z"/>
<path d="M1560 1710 l0 -380 55 0 55 0 0 380 0 380 -55 0 -55 0 0 -380z"/>
<path d="M1800 1710 l0 -380 50 0 50 0 0 380 0 380 -50 0 -50 0 0 -380z"/>
<path d="M2030 1710 l0 -380 25 0 25 0 0 380 0 380 -25 0 -25 0 0 -380z"/>
<path d="M2210 1710 l0 -380 85 0 85 0 0 380 0 380 -85 0 -85 0 0 -380z"/>
<path d="M2490 1704 l0 -385 53 3 52 3 3 383 2 382 -55 0 -55 0 0 -386z"/>
<path d="M2710 1710 l0 -380 85 0 85 0 0 380 0 380 -85 0 -85 0 0 -380z"/>
<path d="M3010 1710 l0 -380 25 0 25 0 0 380 0 380 -25 0 -25 0 0 -380z"/>
<path d="M3190 1710 l0 -380 50 0 50 0 0 380 0 380 -50 0 -50 0 0 -380z"/>
<path d="M3420 1710 l0 -380 50 0 50 0 0 380 0 380 -50 0 -50 0 0 -380z"/>
<path d="M3650 1710 l0 -380 85 0 85 0 0 380 0 380 -85 0 -85 0 0 -380z"/>
<path d="M3950 1710 l0 -380 130 0 130 0 0 380 0 380 -130 0 -130 0 0 -380z"/>
<path d="M4340 1710 l0 -380 25 0 25 0 0 380 0 380 -25 0 -25 0 0 -380z"/>
<path d="M210 1320 l0 -380 385 0 385 0 0 60 0 60 -317 2 -318 3 -3 318 -2
317 -65 0 -65 0 0 -380z"/>
<path d="M4778 1383 l-3 -318 -317 -3 -318 -2 0 -60 0 -60 385 0 385 0 0 380
0 380 -65 0 -65 0 -2 -317z"/>
</g>
</svg>
