<svg xmlns="http://www.w3.org/2000/svg" width="237.333" height="237.333" version="1" viewBox="0 0 178 178"><path d="M10 89c0 49.3 0 50 2 50s2-.7 2-50 0-50-2-50-2 .7-2 50zM16 89c0 32.7.3 50 1 50s1-17.3 1-50-.3-50-1-50-1 17.3-1 50zM22 89c0 32.7.3 50 1 50s1-17.3 1-50-.3-50-1-50-1 17.3-1 50zM32 89c0 49.3 0 50 2 50s2-.7 2-50 0-50-2-50-2 .7-2 50zM38 89v50h6V39h-6v50zM50 89c0 32.7.3 50 1 50s1-17.3 1-50-.3-50-1-50-1 17.3-1 50zM54 89c0 32.7.3 50 1 50s1-17.3 1-50-.3-50-1-50-1 17.3-1 50zM58 89c0 32.7.3 50 1 50s1-17.3 1-50-.3-50-1-50-1 17.3-1 50zM66 89c0 49.3 0 50 2 50s2-.7 2-50 0-50-2-50-2 .7-2 50zM76 89c0 49.3 0 50 2 50s2-.7 2-50 0-50-2-50-2 .7-2 50zM86 89c0 32.7.3 50 1 50s1-17.3 1-50-.3-50-1-50-1 17.3-1 50zM90 89v50h6V39h-6v50zM98 89c0 49.3 0 50 2 50s2-.7 2-50 0-50-2-50-2 .7-2 50zM104 89c0 32.7.3 50 1 50s1-17.3 1-50-.3-50-1-50-1 17.3-1 50zM112 89c0 32.7.3 50 1 50s1-17.3 1-50-.3-50-1-50-1 17.3-1 50zM120 89c0 32.7.3 50 1 50s1-17.3 1-50-.3-50-1-50-1 17.3-1 50zM126 89c0 49.3 0 50 2 50s2-.7 2-50 0-50-2-50-2 .7-2 50zM132 89v50h6V39h-6v50zM142 89c0 49.3 0 50 2 50s2-.7 2-50 0-50-2-50-2 .7-2 50zM152 89v50h6V39h-6v50zM160 89c0 32.7.3 50 1 50s1-17.3 1-50-.3-50-1-50-1 17.3-1 50zM164 89c0 49.3 0 50 2 50s2-.7 2-50 0-50-2-50-2 .7-2 50z"/></svg>
